<?xml version="1.0" standalone="no"?>
<!DOCTYPE svg PUBLIC "-//W3C//DTD SVG 20010904//EN"
 "http://www.w3.org/TR/2001/REC-SVG-20010904/DTD/svg10.dtd">
<svg version="1.0" xmlns="http://www.w3.org/2000/svg"
 width="1247.000000pt" height="1280.000000pt" viewBox="0 0 1247.000000 1280.000000"
 preserveAspectRatio="xMidYMid meet">
<metadata>
Created by potrace 1.15, written by Peter Selinger 2001-2017
</metadata>
<g transform="translate(0.000000,1280.000000) scale(0.100000,-0.100000)"
fill="#00000" stroke="none">
<path d="M5870 12789 c-1309 -79 -2554 -579 -3590 -1442 -192 -161 -605 -574
-765 -767 -721 -867 -1192 -1864 -1399 -2960 -83 -438 -110 -739 -110 -1220 0
-481 27 -782 110 -1220 197 -1044 648 -2028 1305 -2845 288 -359 654 -723
1006 -1001 54 -43 138 -115 187 -161 146 -136 380 -285 630 -399 56 -26 166
-79 246 -119 702 -351 1416 -554 2215 -631 251 -25 809 -25 1060 0 819 79
1576 299 2269 660 572 297 674 360 901 557 50 43 160 135 245 206 181 150 506
465 663 643 779 886 1293 1936 1511 3090 83 438 110 739 110 1220 0 481 -27
782 -110 1220 -207 1096 -678 2093 -1399 2960 -160 193 -573 606 -765 767
-1046 871 -2278 1363 -3615 1443 -194 11 -506 11 -705 -1z m950 -84 c1284
-135 2408 -622 3410 -1479 171 -146 652 -635 582 -592 -8 5 -32 -14 -64 -50
-88 -96 -218 -192 -403 -299 l-100 -57 -25 33 c-357 469 -743 854 -1195 1194
-137 103 -433 303 -547 370 -38 21 -68 42 -68 45 0 3 42 32 91 65 50 33 123
90 163 127 l71 66 -22 23 -22 22 -63 -57 c-35 -32 -114 -92 -177 -134 l-114
-76 -41 23 c-613 347 -1394 644 -2066 787 -60 13 -47 13 185 10 138 -3 320
-12 405 -21z m-1335 -44 c-492 -133 -1006 -340 -1429 -575 l-139 -77 -23 28
c-35 44 -82 125 -89 155 -8 30 -6 31 225 123 396 156 867 283 1300 349 301 46
334 45 155 -3z m464 -151 c6 -91 15 -302 21 -470 5 -168 12 -374 15 -457 l5
-153 -159 0 c-219 0 -633 35 -768 65 -22 5 -20 11 51 154 172 343 356 611 561
817 78 78 252 220 260 212 2 -2 8 -77 14 -168z m121 123 c136 -90 333 -278
462 -438 132 -166 296 -421 391 -612 41 -80 44 -92 29 -97 -63 -19 -558 -56
-754 -56 l-148 0 0 133 c0 240 -34 1050 -46 1090 -8 25 5 21 66 -20z m-411
-90 c-221 -212 -427 -510 -618 -891 -64 -128 -74 -142 -94 -137 -271 59 -422
106 -599 188 -49 22 -88 43 -88 48 0 10 202 179 325 271 335 251 718 458 1105
597 30 10 58 20 63 20 4 1 -38 -43 -94 -96z m642 53 c482 -175 983 -490 1396
-877 l62 -58 -47 -15 c-136 -44 -467 -118 -624 -140 l-47 -7 -55 108 c-201
394 -481 763 -734 971 -35 29 -59 52 -54 52 5 0 52 -15 103 -34z m419 -75
c364 -108 695 -233 1055 -398 143 -66 485 -245 485 -254 0 -8 -275 -129 -362
-159 l-67 -23 -86 79 c-335 309 -674 545 -1040 726 -130 64 -170 86 -135 74 8
-3 76 -23 150 -45z m-1565 -64 c-275 -143 -513 -300 -775 -512 -63 -52 -128
-107 -144 -124 -17 -17 -36 -31 -43 -31 -30 0 -237 160 -223 173 3 2 68 38
145 80 238 129 533 264 785 360 122 46 390 136 405 137 6 0 -62 -38 -150 -83z
m-1406 -309 c10 -24 39 -73 64 -110 l45 -67 -72 -42 c-505 -299 -1063 -783
-1445 -1254 -89 -109 -220 -282 -263 -345 l-16 -25 -77 75 c-115 112 -196 234
-224 335 l-11 40 193 190 c381 377 738 656 1192 931 99 59 576 312 593 314 1
0 11 -19 21 -42z m221 -284 c34 -30 87 -71 116 -91 l55 -36 -144 -146 c-307
-311 -564 -654 -798 -1061 -82 -143 -274 -530 -300 -603 -12 -34 -17 -38 -39
-33 -54 10 -300 112 -425 176 -119 60 -298 171 -311 191 -6 10 30 65 132 200
364 483 828 922 1334 1263 127 85 303 196 311 196 4 0 35 -25 69 -56z m4484
-103 c552 -334 1070 -767 1457 -1221 102 -119 269 -331 269 -340 0 -3 -12 -11
-27 -17 -16 -6 -84 -36 -153 -66 -151 -66 -325 -130 -522 -191 -141 -44 -412
-116 -435 -116 -6 0 -26 35 -43 78 -270 654 -594 1175 -1027 1648 -46 50 -83
94 -83 97 0 3 17 11 38 18 67 21 215 85 307 132 50 25 93 46 97 46 4 1 59 -30
122 -68z m-4194 -91 c144 -73 367 -150 563 -195 98 -23 118 -30 114 -44 -3 -9
-33 -83 -67 -166 -112 -272 -249 -704 -330 -1040 -43 -178 -105 -464 -120
-555 -7 -41 -16 -78 -19 -82 -8 -9 -411 42 -616 77 -260 45 -554 112 -768 176
-63 19 -68 22 -63 43 3 13 39 95 80 182 276 586 595 1054 1014 1486 80 81 146
148 148 148 3 0 31 -13 64 -30z m3793 -325 c358 -420 645 -898 877 -1462 l38
-91 -25 -7 c-308 -77 -1288 -221 -1299 -191 -2 6 -19 88 -39 181 -127 605
-295 1134 -508 1606 l-26 57 52 6 c142 19 532 110 642 149 l40 15 69 -67 c37
-36 118 -124 179 -196z m-2907 70 c159 -24 406 -44 632 -51 l210 -7 6 -316 c3
-174 9 -590 12 -925 l6 -609 -378 6 c-209 4 -458 11 -554 17 -219 12 -604 41
-609 46 -8 7 85 436 149 689 109 432 232 805 369 1118 23 54 18 53 157 32z
m1898 -77 c201 -434 411 -1116 520 -1690 l13 -68 -31 -5 c-37 -5 -237 -20
-466 -35 -227 -14 -674 -30 -856 -30 l-151 0 -7 903 c-3 496 -9 911 -12 923
-5 21 -2 21 193 28 269 9 728 47 742 62 9 9 13 1 55 -88z m-5237 -857 c26 -36
85 -103 131 -148 l83 -83 -94 -152 c-135 -219 -186 -312 -297 -540 -110 -228
-222 -503 -301 -745 -30 -90 -57 -163 -60 -163 -4 0 -49 33 -101 72 -175 136
-348 329 -418 469 l-29 56 90 169 c225 421 472 786 772 1142 l112 133 32 -72
c18 -39 54 -101 80 -138z m9124 26 c192 -232 385 -505 543 -765 92 -153 259
-460 301 -555 l25 -57 -78 -81 c-97 -103 -197 -186 -337 -281 -101 -69 -296
-188 -308 -188 -3 0 -24 57 -47 128 -148 445 -373 905 -648 1321 -84 126 -93
145 -79 155 9 6 65 39 124 74 60 34 144 89 188 122 83 63 225 195 225 211 0
21 19 3 91 -84z m-8744 -370 c61 -41 167 -101 236 -135 120 -59 393 -172 416
-172 16 0 15 -4 -43 -155 -120 -315 -240 -715 -315 -1056 -44 -200 -91 -449
-91 -480 0 -10 -6 -19 -13 -19 -48 0 -449 160 -652 259 -138 68 -364 196 -387
219 -12 12 142 457 227 657 82 193 220 474 304 620 42 72 203 335 206 335 0 0
51 -33 112 -73z m8112 -102 c223 -325 439 -739 590 -1134 55 -142 121 -333
121 -348 0 -13 -260 -137 -435 -208 -162 -65 -363 -136 -555 -195 -134 -41
-506 -140 -527 -140 -6 0 -18 52 -28 118 -75 512 -204 1042 -361 1482 -24 69
-44 129 -44 133 0 4 8 7 18 7 34 0 389 101 577 164 180 61 423 158 510 204 22
12 45 21 51 22 6 0 43 -47 83 -105z m-7258 -269 c322 -97 794 -187 1242 -238
l109 -12 -7 -30 c-56 -275 -154 -1069 -185 -1511 -6 -88 -13 -174 -16 -191
l-4 -31 -68 9 c-643 80 -1122 172 -1550 298 l-114 34 7 45 c19 131 94 485 150
706 66 261 139 497 223 725 76 205 86 230 93 230 4 0 58 -15 120 -34z m6003
-181 c153 -438 269 -907 341 -1380 14 -88 27 -172 30 -187 4 -26 3 -27 -88
-47 -191 -43 -517 -102 -782 -141 -151 -22 -627 -80 -661 -80 -19 0 -21 9 -33
188 -28 426 -88 943 -157 1361 -19 117 -34 215 -32 216 2 2 86 13 188 24 359
41 769 107 1050 169 47 11 88 17 91 13 4 -3 27 -64 53 -136z m-4299 -100 c286
-20 583 -33 948 -41 l317 -7 0 -889 0 -889 -197 5 c-109 3 -301 8 -428 11
-275 7 -504 19 -840 45 -287 23 -295 24 -295 48 0 40 42 522 60 697 36 335
127 985 145 1034 4 10 17 12 48 7 23 -3 132 -12 242 -21z m2855 -27 c34 -162
104 -655 140 -998 21 -203 62 -711 58 -716 -5 -4 -230 -23 -473 -39 -298 -19
-675 -33 -995 -37 l-254 -3 -1 886 0 887 215 6 c483 13 1141 46 1200 60 8 2
34 4 57 5 l41 1 12 -52z m-6845 -403 c71 -109 257 -298 398 -404 53 -41 97
-76 97 -80 0 -3 -20 -84 -44 -181 -123 -482 -193 -945 -226 -1490 -5 -91 -10
-170 -10 -177 0 -12 -152 58 -300 139 -188 102 -402 264 -496 374 l-47 54 12
78 c79 504 213 996 396 1452 73 181 147 342 155 333 3 -4 33 -48 65 -98z
m11092 -22 c6 -16 39 -95 72 -177 198 -479 335 -984 417 -1525 14 -91 15 -116
5 -119 -7 -2 -34 -23 -60 -46 -105 -93 -294 -212 -500 -315 -110 -55 -332
-152 -377 -165 -20 -6 -21 -1 -33 201 -32 548 -131 1148 -255 1546 l-24 78 75
42 c117 66 340 215 428 287 44 36 114 100 155 142 41 42 77 77 80 77 3 1 11
-11 17 -26z m-10409 -574 c211 -127 546 -279 813 -368 52 -18 101 -36 108 -40
10 -7 8 -48 -13 -202 -60 -453 -96 -959 -96 -1366 0 -111 -4 -173 -10 -173
-16 0 -356 86 -492 124 -234 66 -675 221 -703 247 -11 11 7 371 30 589 38 358
97 709 170 1005 53 213 64 255 71 255 2 0 57 -32 122 -71z m9605 -1 c2 -13 25
-102 50 -198 74 -283 122 -526 161 -820 39 -297 71 -779 51 -792 -22 -16 -441
-149 -630 -201 -291 -80 -678 -164 -1067 -231 l-37 -7 6 168 c12 343 -27 1086
-77 1486 -5 39 -7 73 -6 74 2 2 72 21 157 42 473 121 927 280 1244 435 72 36
133 65 136 65 4 1 9 -9 12 -21z m-8233 -533 c333 -84 756 -161 1150 -210 118
-15 216 -28 218 -30 1 -1 -2 -74 -8 -161 -17 -276 -30 -716 -33 -1108 l-2
-378 -85 6 c-292 23 -769 80 -1100 132 -273 43 -620 110 -632 122 -11 11 8
634 27 897 17 221 39 445 60 605 8 58 17 128 20 155 4 28 8 55 10 61 2 8 42 1
122 -23 65 -19 179 -49 253 -68z m6620 -17 c0 -7 5 -51 10 -98 42 -361 60
-676 67 -1157 l6 -452 -34 -5 c-19 -3 -61 -10 -94 -16 -269 -44 -870 -112
-1240 -140 -77 -5 -163 -13 -191 -16 l-51 -5 -6 628 c-3 345 -11 717 -17 826
-7 109 -10 201 -7 203 3 3 103 17 224 30 394 44 831 113 1133 178 176 38 200
41 200 24z m-4900 -253 c357 -29 689 -45 1084 -52 l399 -6 -6 -450 c-4 -248
-7 -616 -7 -818 l0 -368 -267 5 c-554 10 -1136 34 -1455 60 l-78 7 0 246 c0
296 15 825 32 1159 l12 244 50 -6 c28 -3 134 -13 236 -21z m3289 -355 c17
-436 18 -1269 3 -1279 -25 -15 -784 -46 -1399 -56 l-353 -6 0 819 0 819 368 6
c378 7 776 25 1127 52 110 9 207 17 215 18 23 4 27 -37 39 -373z m-7465 -314
c111 -83 288 -188 463 -274 l153 -74 0 -308 c0 -401 21 -718 71 -1079 11 -79
18 -146 15 -148 -6 -7 -188 88 -321 168 -221 132 -470 344 -562 477 -37 53
-47 60 -58 42 -17 -27 -23 4 -33 168 -23 335 -15 753 20 1114 l12 127 82 -78
c45 -42 116 -103 158 -135z m12026 -21 c18 -181 24 -774 11 -971 -77 -1108
-404 -2122 -985 -3047 -110 -174 -234 -345 -289 -399 -230 -223 -703 -468
-1231 -637 -88 -28 -161 -50 -162 -48 -1 1 38 47 88 102 358 395 614 764 863
1244 l100 194 135 53 c286 113 683 329 849 462 94 75 191 165 191 177 0 6 -9
20 -20 30 -20 18 -22 18 -83 -41 -196 -190 -499 -372 -908 -545 -65 -27 -119
-49 -123 -49 -3 0 11 37 30 83 163 375 301 826 389 1271 19 92 35 169 37 170
2 1 71 33 155 70 259 116 505 258 686 395 99 74 237 197 237 211 0 4 -11 15
-24 24 -24 15 -26 14 -83 -40 -118 -114 -301 -244 -509 -362 -88 -50 -338
-174 -417 -206 -37 -15 -37 -15 -32 7 6 27 31 213 45 327 29 247 43 471 49
800 l6 364 145 61 c303 127 556 266 735 403 106 81 96 89 115 -103z m-11190
-415 c321 -122 646 -218 1036 -305 20 -4 21 -12 27 -232 12 -406 45 -804 97
-1163 15 -107 27 -196 26 -197 -5 -5 -391 98 -530 142 -292 91 -671 235 -703
268 -19 21 -68 403 -93 742 -6 77 -13 290 -17 474 -6 326 -6 334 13 327 10 -5
75 -30 144 -56z m10127 -262 c-9 -416 -29 -680 -78 -1028 -29 -210 -23 -195
-77 -218 -164 -71 -528 -191 -818 -271 -313 -86 -896 -213 -910 -198 -3 3 6
86 20 184 59 406 87 713 114 1247 l7 140 160 28 c511 88 1078 230 1445 361 69
25 129 45 134 46 5 1 7 -118 3 -291z m-8881 -88 c431 -89 931 -158 1640 -225
l61 -6 7 -322 c8 -403 49 -1126 71 -1250 5 -28 4 -29 -33 -23 -20 3 -68 8
-107 11 -428 36 -986 117 -1422 206 -106 21 -194 39 -196 39 -6 0 -24 98 -46
260 -48 342 -77 683 -86 1000 -3 113 -8 233 -11 268 -5 73 -14 70 122 42z
m7062 -252 c-14 -363 -54 -803 -104 -1143 -13 -93 -27 -189 -31 -211 -5 -39
-8 -42 -42 -48 -237 -41 -609 -93 -911 -127 -177 -20 -593 -58 -597 -55 -1 1
7 110 17 241 26 317 48 727 55 1005 3 124 8 253 11 286 l5 61 112 7 c349 21
1118 106 1402 155 100 17 91 36 83 -171z m-5078 2 c315 -22 775 -40 1168 -47
l412 -6 0 -800 0 -800 -392 7 c-216 3 -481 11 -588 16 -350 17 -725 42 -732
49 -17 16 -70 870 -83 1354 l-7 237 39 0 c21 0 103 -5 183 -10z m3410 -47 c0
-197 -39 -963 -65 -1283 -8 -101 -15 -196 -15 -210 0 -47 -10 -52 -141 -61
-291 -20 -762 -39 -1141 -45 l-408 -7 0 614 c0 338 3 698 7 800 l6 186 476 6
c445 6 791 18 1076 36 66 5 139 9 163 10 l42 1 0 -47z m-7544 -381 c166 -152
393 -305 648 -437 l141 -73 36 -179 c91 -448 212 -849 370 -1221 27 -64 47
-117 45 -120 -6 -6 -159 63 -291 132 -346 180 -609 388 -742 585 -1 2 -9 -2
-18 -9 -9 -7 -17 -11 -19 -9 -8 9 -59 161 -106 315 -67 220 -113 408 -160 644
-33 166 -49 268 -85 544 l-6 38 59 -74 c32 -40 90 -102 128 -136z m906 -558
c161 -83 660 -249 1032 -344 88 -22 163 -45 166 -50 4 -6 15 -54 24 -108 78
-418 226 -943 361 -1279 18 -46 32 -83 31 -83 -10 0 -218 48 -331 76 -207 52
-389 106 -586 173 -279 96 -258 82 -309 197 -116 265 -240 623 -319 924 -24
93 -70 297 -107 483 -7 32 -3 32 38 11z m9998 1 c0 -68 -121 -566 -195 -801
-90 -286 -255 -698 -286 -715 -33 -17 -373 -127 -535 -173 -206 -58 -448 -116
-669 -162 -139 -29 -448 -84 -469 -84 -10 0 -4 27 26 108 124 338 230 739 341
1296 l12 60 256 52 c536 109 1086 263 1419 398 101 40 100 40 100 21z m-8522
-445 c424 -86 974 -164 1417 -203 l140 -12 8 -75 c31 -313 102 -781 172 -1130
24 -123 43 -225 42 -226 -7 -4 -637 62 -822 87 -175 23 -605 94 -685 112 l-55
12 -38 95 c-128 318 -268 796 -345 1180 -37 182 -40 200 -35 200 3 0 93 -18
201 -40z m6672 -50 c0 -28 -67 -349 -111 -529 -77 -318 -230 -820 -277 -908
-12 -21 -66 -31 -392 -73 -316 -41 -944 -99 -955 -89 -2 3 9 77 25 165 57 304
114 705 163 1149 l12 110 195 17 c392 35 871 93 1165 142 167 28 175 29 175
16z m-4875 -185 c218 -17 667 -36 1070 -45 252 -6 460 -12 461 -13 1 -1 4
-319 7 -706 l5 -704 -417 6 c-375 6 -845 26 -1008 43 -45 5 -64 11 -67 23 -46
153 -184 997 -210 1286 -4 39 -9 83 -12 98 l-6 29 54 -6 c29 -3 85 -8 123 -11z
m3263 -77 c-18 -183 -61 -526 -94 -743 -32 -219 -99 -593 -106 -601 -10 -10
-638 -35 -1015 -41 l-431 -6 -6 44 c-3 24 -7 342 -8 707 l-3 662 50 0 c325 1
1180 31 1430 50 55 4 120 8 146 9 l45 1 -8 -82z m-6983 -353 c177 -139 411
-275 669 -390 l161 -72 83 -164 c246 -483 581 -960 926 -1316 33 -35 58 -63
54 -63 -8 0 -261 90 -348 123 -270 105 -514 235 -710 380 -101 75 -245 214
-276 266 -10 17 -24 31 -31 31 -6 0 -63 78 -126 173 -247 371 -444 742 -603
1135 -30 74 -54 135 -54 136 0 2 39 -37 88 -86 48 -50 123 -118 167 -153z
m9899 -566 c-242 -482 -532 -899 -915 -1316 l-139 -151 -188 -46 c-318 -77
-608 -133 -940 -181 -233 -34 -221 -35 -179 23 253 347 484 778 700 1302 l14
35 139 24 c495 83 991 203 1379 333 88 29 161 52 163 52 2 -1 -13 -35 -34 -75z
m-8772 -4 c263 -90 646 -194 904 -246 l61 -12 48 -111 c186 -427 440 -855 710
-1201 41 -52 75 -97 75 -99 0 -13 -520 94 -745 153 l-150 40 -112 116 c-354
367 -671 809 -916 1276 -43 80 -77 149 -77 153 0 4 9 2 19 -4 11 -5 93 -35
183 -65z m1173 -299 c340 -65 843 -130 1275 -167 l146 -12 38 -151 c52 -207
118 -432 178 -611 54 -160 168 -455 199 -517 11 -21 19 -40 19 -44 0 -17 -579
36 -959 88 l-164 23 -50 60 c-149 178 -349 468 -487 705 -103 177 -320 616
-320 646 0 2 10 2 23 0 12 -3 58 -12 102 -20z m5836 -138 c-103 -249 -270
-589 -392 -793 -78 -131 -236 -371 -296 -450 l-39 -50 -149 -17 c-226 -25
-785 -71 -792 -64 -1 1 25 80 58 176 124 359 242 786 300 1088 10 53 15 62 33
62 129 1 1211 116 1261 135 6 2 20 4 32 4 21 1 21 -2 -16 -91z m-4001 -68
c272 -15 760 -30 956 -30 l172 0 6 -307 c3 -170 10 -463 15 -653 4 -190 6
-347 4 -349 -4 -5 -828 17 -971 26 l-84 5 -30 67 c-82 181 -186 462 -260 701
-38 125 -131 465 -143 529 l-7 34 78 -7 c44 -3 162 -11 264 -16z m2630 -6 c0
-23 -85 -383 -127 -539 -52 -193 -113 -390 -178 -570 -31 -88 -59 -167 -62
-176 -3 -12 -21 -18 -56 -22 -71 -8 -975 -32 -981 -26 -5 6 -26 878 -26 1115
l0 191 403 7 c221 5 508 14 637 21 355 18 390 18 390 -1z m3434 -466 c-11 -13
-63 -72 -115 -133 -244 -284 -765 -774 -806 -758 -9 3 -34 -17 -64 -51 -76
-84 -470 -359 -663 -462 -263 -140 -718 -285 -1186 -378 -196 -39 -450 -80
-456 -74 -2 3 22 15 54 28 112 45 510 247 667 339 420 246 771 505 1121 827
118 108 138 123 185 134 91 22 426 134 579 194 190 75 482 220 595 295 97 64
120 74 89 39z m-9116 -192 c203 -114 491 -233 776 -323 l139 -43 92 -88 c445
-425 1072 -848 1667 -1124 97 -45 176 -83 174 -85 -3 -4 -312 50 -441 77 -323
67 -701 183 -868 266 -173 87 -455 263 -689 430 -110 79 -173 144 -232 237
-12 20 -22 27 -34 22 -9 -4 -24 -9 -33 -12 -24 -7 -211 158 -440 386 -169 170
-399 420 -399 435 0 2 42 -24 93 -58 50 -35 138 -89 195 -120z m7572 -467
c-473 -446 -1185 -892 -1885 -1181 -112 -46 -129 -50 -265 -63 -193 -18 -250
-23 -250 -19 0 1 39 28 86 60 358 238 704 555 1001 916 61 75 113 130 126 132
12 3 81 12 152 21 291 37 793 130 1020 189 50 13 92 24 95 24 3 1 -33 -35 -80
-79z m-6349 21 c186 -45 412 -90 574 -116 l110 -17 54 -61 c106 -118 327 -339
441 -440 255 -226 469 -383 755 -554 l140 -83 -75 6 c-95 9 -155 29 -365 122
-587 260 -1148 609 -1594 993 -106 91 -214 190 -208 190 3 0 78 -18 168 -40z
m964 -174 c224 -30 475 -56 755 -76 85 -6 158 -15 161 -18 4 -4 40 -72 81
-152 168 -325 338 -578 537 -799 l75 -84 -159 8 -160 7 -110 58 c-420 220
-867 562 -1212 925 -70 74 -129 140 -131 145 -2 6 9 8 25 5 15 -3 78 -11 138
-19z m4075 -22 c0 -18 -220 -265 -375 -420 -256 -257 -491 -447 -757 -612
l-113 -70 -128 -4 c-70 -2 -127 -2 -127 0 0 2 23 30 51 64 148 178 361 550
489 853 23 55 46 105 51 111 5 6 65 14 141 18 136 7 528 40 653 55 93 11 115
12 115 5z m-2400 -93 l345 -6 16 -380 c9 -209 20 -437 24 -508 l7 -127 -178 0
-179 0 -78 82 c-202 210 -389 482 -565 817 l-75 144 169 -8 c93 -4 324 -11
514 -14z m1380 -68 c-154 -355 -319 -640 -497 -860 l-75 -93 -173 0 -173 0 -6
63 c-8 80 -35 687 -37 837 l-2 115 249 3 c137 2 335 7 439 11 105 4 218 9 252
9 l62 2 -39 -87z m1629 -717 c-10 -10 -227 -100 -358 -148 -535 -198 -1060
-314 -1636 -362 -93 -8 -171 -13 -173 -12 -1 2 28 11 65 20 212 53 620 182
756 239 22 9 112 26 200 37 220 28 503 75 672 111 152 33 388 93 426 108 25
10 56 14 48 7z m-4714 -76 c119 -35 500 -107 710 -135 123 -17 229 -37 275
-52 41 -14 190 -65 330 -112 140 -48 290 -95 333 -105 43 -10 76 -21 73 -23
-7 -7 -281 27 -463 58 -410 69 -756 163 -1158 314 -99 37 -182 69 -184 71 -9
8 16 3 84 -16z m1357 -232 c37 -18 66 -33 64 -35 -3 -4 -198 66 -206 74 -15
15 84 -12 142 -39z m1788 38 c0 -9 -514 -167 -539 -166 -3 0 55 33 129 72
l135 71 120 12 c154 16 155 16 155 11z m-1365 -87 c39 -32 81 -67 95 -78 22
-18 13 -17 -65 10 -102 35 -305 118 -319 130 -5 4 42 5 105 2 l114 -6 70 -58z
m944 56 c-7 -7 -281 -131 -309 -140 -17 -5 1 17 55 68 l80 76 89 1 c49 0 87
-2 85 -5z m-616 -72 c4 -38 7 -83 7 -101 l0 -34 -47 28 c-55 31 -174 113 -218
149 l-30 25 141 0 141 0 6 -67z m279 13 c-59 -55 -178 -146 -192 -146 -5 0
-11 30 -14 68 -4 37 -8 82 -11 100 l-4 32 139 0 139 0 -57 -54z"/>
</g>
</svg>
